<svg version="1.1" id="Layer_1" xmlns="http://www.w3.org/2000/svg" xmlns:xlink="http://www.w3.org/1999/xlink" x="0px" y="0px"
	 width="100%" viewBox="0 0 1024 1024" enable-background="new 0 0 1024 1024" xml:space="preserve">
<path fill="#000000" opacity="1.000000" stroke="none" 
	d="
M567.000000,1025.000000 
	C378.000000,1025.000000 189.500000,1025.000000 1.000000,1025.000000 
	C1.000000,683.666687 1.000000,342.333344 1.000000,1.000000 
	C342.333344,1.000000 683.666687,1.000000 1025.000000,1.000000 
	C1025.000000,342.333344 1025.000000,683.666687 1025.000000,1025.000000 
	C872.500000,1025.000000 720.000000,1025.000000 567.000000,1025.000000 
M896.968933,230.145996 
	C894.050537,218.149063 892.324707,205.691345 887.912354,194.271652 
	C882.373352,179.936157 872.597717,167.892044 860.724182,158.020340 
	C853.284485,151.834930 845.358032,146.096451 837.074158,141.114883 
	C831.753052,137.915024 825.267517,136.720154 819.512939,134.157364 
	C809.377869,129.643768 798.598206,128.369247 787.794861,128.076950 
	C771.490662,127.635834 755.163574,128.044327 738.103943,128.043991 
	C736.312073,128.029846 734.520264,128.003311 732.728394,128.003510 
	C718.161499,128.005035 703.594543,128.021591 689.027649,128.014252 
	C666.328369,128.002808 643.628357,128.077240 620.929993,127.921898 
	C604.693481,127.810776 588.460022,127.279770 572.223450,127.138855 
	C563.776001,127.065529 555.324341,127.413048 546.875610,127.614830 
	C545.278503,127.652977 543.686340,127.900246 541.183899,127.986855 
	C538.756104,128.010468 536.328369,128.034058 533.178833,127.725563 
	C530.544434,127.826447 527.908569,128.041687 525.275818,128.009079 
	C511.392975,127.837189 497.511414,127.512390 483.628326,127.432281 
	C477.644287,127.397743 471.656006,128.024536 465.672577,127.977699 
	C461.062531,127.941612 456.417389,126.787117 451.861481,127.124420 
	C447.886749,127.418701 443.289856,124.879738 439.139404,128.764725 
	C436.707123,128.540970 434.274872,128.317215 431.033508,128.040009 
	C427.928406,128.034836 424.821472,128.096985 421.718536,128.012360 
	C410.650452,127.710503 399.583069,127.108452 388.516754,127.136353 
	C383.341370,127.149391 378.168945,128.343369 372.511749,128.976913 
	C372.511749,128.976913 372.028503,129.005081 372.058685,128.266251 
	C367.062500,128.190384 362.066345,128.114502 356.168884,127.983238 
	C354.061249,128.018250 351.953583,128.053268 349.139526,127.711166 
	C347.572418,127.477768 345.999634,127.010254 344.439148,127.048271 
	C332.667480,127.335022 320.898254,127.721146 308.245148,128.092560 
	C302.834839,128.396133 297.424530,128.699707 291.691711,128.175690 
	C275.119690,127.787804 258.548889,127.290154 241.974609,127.112045 
	C238.948730,127.079536 235.908859,128.349594 232.038666,128.887726 
	C226.002274,129.739349 219.844650,130.095627 213.952789,131.537720 
	C197.856247,135.477554 183.247467,142.966141 170.492630,153.317947 
	C163.087189,159.328201 157.195312,167.230774 150.780884,174.423218 
	C147.539474,178.057770 143.791473,181.606842 141.792389,185.901962 
	C138.315628,193.371857 135.419510,201.238068 133.388321,209.220169 
	C131.253281,217.610397 130.418976,226.331635 128.189880,235.254654 
	C128.119843,242.412003 127.992218,249.569305 127.989159,256.726685 
	C127.970078,301.375671 127.981110,346.024628 127.977753,390.673615 
	C127.974464,434.490936 127.950539,478.308228 127.963936,522.125549 
	C127.977478,566.441406 128.048569,610.757324 128.052307,655.073181 
	C128.056076,699.888489 127.998299,744.703735 128.026764,789.519043 
	C128.027695,790.987976 128.676193,792.456543 129.213211,794.693970 
	C129.277588,797.447571 128.829498,800.334534 129.504822,802.929138 
	C131.348053,810.010742 133.856644,816.917603 135.751144,823.987610 
	C138.808365,835.396851 145.730637,844.708008 151.878738,854.436829 
	C153.778366,857.442810 155.758392,860.664429 158.461441,862.845886 
	C166.321732,869.189514 174.314438,875.435852 182.717865,881.024658 
	C196.697418,890.321960 212.256714,895.512756 229.855240,897.147644 
	C233.937500,897.129639 238.019745,897.111572 242.470520,897.070251 
	C242.470520,897.070251 242.837662,897.031006 243.125076,897.340759 
	C243.471817,897.237610 243.818542,897.134521 244.497009,897.044373 
	C244.497009,897.044373 244.828812,897.032837 245.122391,897.345337 
	C245.477234,897.242310 245.832092,897.139282 246.618011,897.011475 
	C246.618011,897.011475 247.043030,896.935303 247.500061,896.960876 
	C247.500061,896.960876 247.957214,896.937866 248.371780,897.015259 
	C248.371780,897.015259 248.792740,897.041260 249.102631,897.357056 
	C249.469193,897.251465 249.835754,897.145874 250.635315,897.012085 
	C250.635315,897.012085 251.062241,896.934448 251.986832,896.976929 
	C373.210938,896.983459 494.435059,896.992188 615.659180,896.995728 
	C675.436462,896.997498 735.213745,896.989929 795.763550,896.956604 
	C810.848633,896.620605 824.648132,891.254578 837.603394,884.454712 
	C850.536255,877.666687 862.596375,869.064514 871.363281,856.956055 
	C876.336426,850.087524 881.299133,843.043274 884.985596,835.455811 
	C889.176941,826.829163 892.381226,817.640442 895.132935,808.432556 
	C896.467163,803.968018 895.788940,798.902039 896.692383,793.555847 
	C896.808044,792.240417 897.024841,790.924988 897.024902,789.609558 
	C897.027039,691.013733 897.009644,592.417969 896.999146,493.822174 
	C896.989868,406.219849 896.986755,318.617554 896.968933,230.145996 
z"/>
<path fill="#292934" opacity="1.000000" stroke="none" 
	d="
M244.828812,897.032837 
	C244.828812,897.032837 244.497009,897.044373 243.998779,897.031738 
	C243.279602,897.023010 243.058640,897.027039 242.837662,897.031006 
	C242.837662,897.031006 242.470520,897.070251 241.956390,896.819580 
	C237.301422,896.702393 233.160614,896.835938 229.019791,896.969482 
	C212.256714,895.512756 196.697418,890.321960 182.717865,881.024658 
	C174.314438,875.435852 166.321732,869.189514 158.461441,862.845886 
	C155.758392,860.664429 153.778366,857.442810 151.878738,854.436829 
	C145.730637,844.708008 138.808365,835.396851 135.751144,823.987610 
	C133.856644,816.917603 131.348053,810.010742 129.504822,802.929138 
	C128.829498,800.334534 129.277588,797.447571 129.194061,793.966919 
	C129.122040,607.129333 129.069153,421.018799 129.016281,234.908218 
	C130.418976,226.331635 131.253281,217.610397 133.388321,209.220169 
	C135.419510,201.238068 138.315628,193.371857 141.792389,185.901962 
	C143.791473,181.606842 147.539474,178.057770 150.780884,174.423218 
	C157.195312,167.230774 163.087189,159.328201 170.492630,153.317947 
	C183.247467,142.966141 197.856247,135.477554 213.952789,131.537720 
	C219.844650,130.095627 226.002274,129.739349 232.930817,129.013077 
	C253.220062,129.093369 272.617126,129.048325 292.014221,129.003281 
	C297.424530,128.699707 302.834839,128.396133 308.836304,128.492371 
	C317.893280,128.963486 326.360840,129.167114 334.824219,129.056061 
	C339.834839,128.990326 344.838928,128.427551 349.845947,128.088272 
	C351.953583,128.053268 354.061249,128.018250 356.766876,128.422226 
	C362.252747,128.909164 367.140625,128.957123 372.028503,129.005081 
	C372.028503,129.005081 372.511749,128.976913 373.221252,129.026764 
	C388.385681,129.079376 402.841309,129.163742 417.295166,129.039261 
	C422.146667,128.997482 426.993591,128.423935 431.842590,128.093460 
	C434.274872,128.317215 436.707123,128.540970 439.994446,128.890717 
	C467.064545,129.045135 493.279785,129.126175 519.494568,129.054230 
	C524.297424,129.041046 529.098633,128.405777 533.900574,128.057663 
	C536.328369,128.034058 538.756104,128.010468 541.799622,128.422241 
	C563.062317,128.934891 583.709290,129.057617 604.356323,129.079559 
	C642.493958,129.120071 680.631714,129.150192 718.769104,129.061768 
	C725.462219,129.046265 732.153870,128.430359 738.846191,128.091736 
	C755.163574,128.044327 771.490662,127.635834 787.794861,128.076950 
	C798.598206,128.369247 809.377869,129.643768 819.512939,134.157364 
	C825.267517,136.720154 831.753052,137.915024 837.074158,141.114883 
	C845.358032,146.096451 853.284485,151.834930 860.724182,158.020340 
	C872.597717,167.892044 882.373352,179.936157 887.912354,194.271652 
	C892.324707,205.691345 894.050537,218.149063 896.708252,230.897598 
	C896.298401,233.458588 896.024292,235.267654 896.019714,237.077393 
	C895.984375,251.232056 896.000610,265.386871 896.001221,279.541626 
	C896.007996,451.063873 896.014954,622.586121 896.021851,794.108337 
	C895.788940,798.902039 896.467163,803.968018 895.132935,808.432556 
	C892.381226,817.640442 889.176941,826.829163 884.985596,835.455811 
	C881.299133,843.043274 876.336426,850.087524 871.363281,856.956055 
	C862.596375,869.064514 850.536255,877.666687 837.603394,884.454712 
	C824.648132,891.254578 810.848633,896.620605 795.064819,896.697510 
	C792.889099,896.291565 791.412231,896.016296 789.935303,896.016174 
	C612.068481,895.998413 434.201691,895.998291 256.334869,896.041016 
	C254.577271,896.041443 252.819794,896.623779 251.062241,896.934448 
	C251.062241,896.934448 250.635315,897.012085 250.065887,897.017761 
	C249.261871,897.029358 249.027313,897.035339 248.792740,897.041260 
	C248.792740,897.041260 248.371780,897.015259 248.070145,896.863098 
	C247.473816,896.555664 247.231995,896.630432 247.043030,896.935303 
	C247.043030,896.935303 246.618011,897.011475 246.062439,897.016235 
	C245.280838,897.024963 245.054825,897.028870 244.828812,897.032837 
M363.499878,561.773132 
	C370.499237,561.762146 377.504883,561.922974 384.495209,561.666077 
	C387.874207,561.541870 389.891968,562.599182 391.723785,565.522949 
	C407.986725,591.479370 424.446899,617.312134 440.732391,643.254578 
	C442.321838,645.786560 443.952759,646.889526 447.047180,646.866272 
	C469.043915,646.701050 491.042236,646.749084 513.040039,646.705444 
	C514.250183,646.703003 515.459961,646.488464 517.126282,646.328979 
	C496.655548,614.681641 476.518646,583.550354 456.410065,552.462830 
	C456.752747,552.058899 456.918610,551.725159 457.187225,551.573425 
	C457.907257,551.166626 458.665314,550.824646 459.418854,550.480103 
	C493.070801,535.093140 511.026764,508.943542 512.425293,471.954834 
	C513.745605,437.034485 498.654144,405.228485 461.918060,389.503662 
	C444.936615,382.234802 427.154480,379.328827 408.838593,379.295807 
	C361.676636,379.210724 314.514435,379.243591 267.352356,379.238586 
	C266.233521,379.238464 265.114716,379.346771 263.818237,379.413666 
	C263.818237,468.596619 263.818237,557.499695 263.818237,646.461243 
	C286.381287,646.461243 308.637299,646.461243 331.465027,646.461243 
	C331.465027,618.117065 331.465027,590.066528 331.465027,561.771790 
	C342.191040,561.771790 352.345428,561.771790 363.499878,561.773132 
M630.500000,379.054504 
	C606.676025,379.056244 582.851379,379.151154 559.028687,378.978577 
	C554.439392,378.945312 552.989563,380.468109 552.995300,385.037201 
	C553.101379,470.336823 553.102112,555.636658 553.002930,640.936279 
	C552.997681,645.473450 554.400085,647.073792 559.020691,647.022400 
	C577.344543,646.818604 595.671997,646.942993 613.998108,646.930359 
	C620.949829,646.925598 620.974670,646.906555 620.977295,639.974670 
	C620.988770,610.153076 620.978943,580.331482 620.989685,550.509888 
	C620.992432,542.982239 621.014282,542.983887 628.413086,542.982300 
	C668.730530,542.973328 709.048157,542.904846 749.365112,543.038818 
	C753.713074,543.053284 755.168457,541.827393 755.083557,537.388428 
	C754.831848,524.231873 755.014954,511.067230 755.007690,497.905731 
	C755.003906,491.006989 754.984680,490.980408 748.200867,490.978241 
	C707.883423,490.965393 667.565674,490.902527 627.248779,491.046173 
	C622.488525,491.063141 620.832886,489.598724 620.908264,484.770844 
	C621.147522,469.447266 620.984680,454.117645 620.998901,438.790344 
	C621.005188,431.993256 621.135559,431.870361 628.079834,431.870605 
	C669.186157,431.872131 710.292419,431.884521 751.398743,431.885651 
	C753.396423,431.885712 755.397766,431.877930 757.390930,431.762421 
	C761.280090,431.537018 763.158508,429.988556 763.052246,425.528656 
	C762.738770,412.374603 762.947083,399.208374 762.930237,386.046906 
	C762.921326,379.121277 762.878967,379.064178 755.950989,379.062225 
	C714.467346,379.050446 672.983643,379.055847 630.500000,379.054504 
z"/>
<path fill="#37383E" opacity="1.000000" stroke="none" 
	d="
M896.357117,793.832092 
	C896.014954,622.586121 896.007996,451.063873 896.001221,279.541626 
	C896.000610,265.386871 895.984375,251.232056 896.019714,237.077393 
	C896.024292,235.267654 896.298401,233.458588 896.714233,231.332214 
	C896.986755,318.617554 896.989868,406.219849 896.999146,493.822174 
	C897.009644,592.417969 897.027039,691.013733 897.024902,789.609558 
	C897.024841,790.924988 896.808044,792.240417 896.357117,793.832092 
z"/>
<path fill="#D5D5D8" opacity="1.000000" stroke="none" 
	d="
M128.603088,235.081436 
	C129.069153,421.018799 129.122040,607.129333 129.098877,793.582642 
	C128.676193,792.456543 128.027695,790.987976 128.026764,789.519043 
	C127.998299,744.703735 128.056076,699.888489 128.052307,655.073181 
	C128.048569,610.757324 127.977478,566.441406 127.963936,522.125549 
	C127.950539,478.308228 127.974464,434.490936 127.977753,390.673615 
	C127.981110,346.024628 127.970078,301.375671 127.989159,256.726685 
	C127.992218,249.569305 128.119843,242.412003 128.603088,235.081436 
z"/>
<path fill="#39393F" opacity="1.000000" stroke="none" 
	d="
M251.524536,896.955688 
	C252.819794,896.623779 254.577271,896.041443 256.334869,896.041016 
	C434.201691,895.998291 612.068481,895.998413 789.935303,896.016174 
	C791.412231,896.016296 792.889099,896.291565 794.678528,896.712463 
	C735.213745,896.989929 675.436462,896.997498 615.659180,896.995728 
	C494.435059,896.992188 373.210938,896.983459 251.524536,896.955688 
z"/>
<path fill="#D3D3D6" opacity="1.000000" stroke="none" 
	d="
M738.475098,128.067871 
	C732.153870,128.430359 725.462219,129.046265 718.769104,129.061768 
	C680.631714,129.150192 642.493958,129.120071 604.356323,129.079559 
	C583.709290,129.057617 563.062317,128.934891 542.253662,128.454330 
	C543.686340,127.900246 545.278503,127.652977 546.875610,127.614830 
	C555.324341,127.413048 563.776001,127.065529 572.223450,127.138855 
	C588.460022,127.279770 604.693481,127.810776 620.929993,127.921898 
	C643.628357,128.077240 666.328369,128.002808 689.027649,128.014252 
	C703.594543,128.021591 718.161499,128.005035 732.728394,128.003510 
	C734.520264,128.003311 736.312073,128.029846 738.475098,128.067871 
z"/>
<path fill="#D4D3D6" opacity="1.000000" stroke="none" 
	d="
M533.539673,127.891617 
	C529.098633,128.405777 524.297424,129.041046 519.494568,129.054230 
	C493.279785,129.126175 467.064545,129.045135 440.374146,129.015717 
	C443.289856,124.879738 447.886749,127.418701 451.861481,127.124420 
	C456.417389,126.787117 461.062531,127.941612 465.672577,127.977699 
	C471.656006,128.024536 477.644287,127.397743 483.628326,127.432281 
	C497.511414,127.512390 511.392975,127.837189 525.275818,128.009079 
	C527.908569,128.041687 530.544434,127.826447 533.539673,127.891617 
z"/>
<path fill="#D5D5D8" opacity="1.000000" stroke="none" 
	d="
M431.438049,128.066742 
	C426.993591,128.423935 422.146667,128.997482 417.295166,129.039261 
	C402.841309,129.163742 388.385681,129.079376 373.462952,129.039352 
	C378.168945,128.343369 383.341370,127.149391 388.516754,127.136353 
	C399.583069,127.108452 410.650452,127.710503 421.718536,128.012360 
	C424.821472,128.096985 427.928406,128.034836 431.438049,128.066742 
z"/>
<path fill="#D6D5D9" opacity="1.000000" stroke="none" 
	d="
M291.852966,128.589478 
	C272.617126,129.048325 253.220062,129.093369 233.349213,129.078400 
	C235.908859,128.349594 238.948730,127.079536 241.974609,127.112045 
	C258.548889,127.290154 275.119690,127.787804 291.852966,128.589478 
z"/>
<path fill="#D3D3D6" opacity="1.000000" stroke="none" 
	d="
M349.492737,127.899719 
	C344.838928,128.427551 339.834839,128.990326 334.824219,129.056061 
	C326.360840,129.167114 317.893280,128.963486 309.277893,128.484192 
	C320.898254,127.721146 332.667480,127.335022 344.439148,127.048271 
	C345.999634,127.010254 347.572418,127.477768 349.492737,127.899719 
z"/>
<path fill="#D1D0D2" opacity="1.000000" stroke="none" 
	d="
M372.043579,128.635666 
	C367.140625,128.957123 362.252747,128.909164 357.217529,128.449921 
	C362.066345,128.114502 367.062500,128.190384 372.043579,128.635666 
z"/>
<path fill="#39393F" opacity="1.000000" stroke="none" 
	d="
M229.437515,897.058594 
	C233.160614,896.835938 237.301422,896.702393 241.772125,896.831177 
	C238.019745,897.111572 233.937500,897.129639 229.437515,897.058594 
z"/>
<path fill="#39393F" opacity="1.000000" stroke="none" 
	d="
M247.271545,896.948120 
	C247.231995,896.630432 247.473816,896.555664 247.862854,896.824402 
	C247.957214,896.937866 247.500061,896.960876 247.271545,896.948120 
z"/>
<path fill="#39393F" opacity="1.000000" stroke="none" 
	d="
M242.981369,897.185913 
	C243.058640,897.027039 243.279602,897.023010 243.832916,897.025208 
	C243.818542,897.134521 243.471817,897.237610 242.981369,897.185913 
z"/>
<path fill="#39393F" opacity="1.000000" stroke="none" 
	d="
M244.975601,897.189087 
	C245.054825,897.028870 245.280838,897.024963 245.846909,897.028687 
	C245.832092,897.139282 245.477234,897.242310 244.975601,897.189087 
z"/>
<path fill="#39393F" opacity="1.000000" stroke="none" 
	d="
M248.947693,897.199158 
	C249.027313,897.035339 249.261871,897.029358 249.849365,897.031860 
	C249.835754,897.145874 249.469193,897.251465 248.947693,897.199158 
z"/>
<path fill="#E9EAEF" opacity="1.000000" stroke="none" 
	d="
M362.999878,561.772461 
	C352.345428,561.771790 342.191040,561.771790 331.465027,561.771790 
	C331.465027,590.066528 331.465027,618.117065 331.465027,646.461243 
	C308.637299,646.461243 286.381287,646.461243 263.818237,646.461243 
	C263.818237,557.499695 263.818237,468.596619 263.818237,379.413666 
	C265.114716,379.346771 266.233521,379.238464 267.352356,379.238586 
	C314.514435,379.243591 361.676636,379.210724 408.838593,379.295807 
	C427.154480,379.328827 444.936615,382.234802 461.918060,389.503662 
	C498.654144,405.228485 513.745605,437.034485 512.425293,471.954834 
	C511.026764,508.943542 493.070801,535.093140 459.418854,550.480103 
	C458.665314,550.824646 457.907257,551.166626 457.187225,551.573425 
	C456.918610,551.725159 456.752747,552.058899 456.410065,552.462830 
	C476.518646,583.550354 496.655548,614.681641 517.126282,646.328979 
	C515.459961,646.488464 514.250183,646.703003 513.040039,646.705444 
	C491.042236,646.749084 469.043915,646.701050 447.047180,646.866272 
	C443.952759,646.889526 442.321838,645.786560 440.732391,643.254578 
	C424.446899,617.312134 407.986725,591.479370 391.723785,565.522949 
	C389.891968,562.599182 387.874207,561.541870 384.495209,561.666077 
	C377.504883,561.922974 370.499237,561.762146 362.999878,561.772461 
M407.735046,431.054138 
	C406.789703,431.115082 405.844391,431.176025 403.999176,431.469421 
	C379.790314,431.469421 355.581451,431.469421 331.500000,431.469421 
	C331.500000,457.678802 331.500000,483.092926 331.500000,508.713409 
	C332.569824,508.799683 333.367828,508.920654 334.165771,508.920197 
	C356.309021,508.906952 378.453522,509.002899 400.594543,508.769012 
	C405.874237,508.713257 411.247620,508.004242 416.396423,506.811981 
	C433.839111,502.772858 444.053284,489.421234 444.305054,470.915070 
	C444.566681,451.683014 434.993011,438.089783 417.769012,433.444489 
	C414.572296,432.582336 411.247101,432.196594 407.735046,431.054138 
z"/>
<path fill="#0A3892" opacity="1.000000" stroke="none" 
	d="
M631.000000,379.054993 
	C672.983643,379.055847 714.467346,379.050446 755.950989,379.062225 
	C762.878967,379.064178 762.921326,379.121277 762.930237,386.046906 
	C762.947083,399.208374 762.738770,412.374603 763.052246,425.528656 
	C763.158508,429.988556 761.280090,431.537018 757.390930,431.762421 
	C755.397766,431.877930 753.396423,431.885712 751.398743,431.885651 
	C710.292419,431.884521 669.186157,431.872131 628.079834,431.870605 
	C621.135559,431.870361 621.005188,431.993256 620.998901,438.790344 
	C620.984680,454.117645 621.147522,469.447266 620.908264,484.770844 
	C620.832886,489.598724 622.488525,491.063141 627.248779,491.046173 
	C667.565674,490.902527 707.883423,490.965393 748.200867,490.978241 
	C754.984680,490.980408 755.003906,491.006989 755.007690,497.905731 
	C755.014954,511.067230 754.831848,524.231873 755.083557,537.388428 
	C755.168457,541.827393 753.713074,543.053284 749.365112,543.038818 
	C709.048157,542.904846 668.730530,542.973328 628.413086,542.982300 
	C621.014282,542.983887 620.992432,542.982239 620.989685,550.509888 
	C620.978943,580.331482 620.988770,610.153076 620.977295,639.974670 
	C620.974670,646.906555 620.949829,646.925598 613.998108,646.930359 
	C595.671997,646.942993 577.344543,646.818604 559.020691,647.022400 
	C554.400085,647.073792 552.997681,645.473450 553.002930,640.936279 
	C553.102112,555.636658 553.101379,470.336823 552.995300,385.037201 
	C552.989563,380.468109 554.439392,378.945312 559.028687,378.978577 
	C582.851379,379.151154 606.676025,379.056244 631.000000,379.054993 
z"/>
<path fill="#2A2A35" opacity="1.000000" stroke="none" 
	d="
M407.981201,431.591003 
	C411.247101,432.196594 414.572296,432.582336 417.769012,433.444489 
	C434.993011,438.089783 444.566681,451.683014 444.305054,470.915070 
	C444.053284,489.421234 433.839111,502.772858 416.396423,506.811981 
	C411.247620,508.004242 405.874237,508.713257 400.594543,508.769012 
	C378.453522,509.002899 356.309021,508.906952 334.165771,508.920197 
	C333.367828,508.920654 332.569824,508.799683 331.500000,508.713409 
	C331.500000,483.092926 331.500000,457.678802 331.500000,431.469421 
	C355.581451,431.469421 379.790314,431.469421 404.728821,431.503357 
	C406.299408,431.555206 407.140289,431.573090 407.981201,431.591003 
z"/>
<path fill="#F5F5FB" opacity="1.000000" stroke="none" 
	d="
M407.858124,431.322571 
	C407.140289,431.573090 406.299408,431.555206 405.178772,431.387146 
	C405.844391,431.176025 406.789703,431.115082 407.858124,431.322571 
z"/>
</svg>