<svg id="svg" version="1.1" xmlns="http://www.w3.org/2000/svg" xmlns:xlink="http://www.w3.org/1999/xlink" width="400" height="400" viewBox="0, 0, 400,400"><g id="svgg"><path id="path0" d="M93.179 49.634 C 93.353 49.916,92.983 49.965,92.031 49.786 C 91.102 49.612,90.625 49.670,90.625 49.957 C 90.625 50.195,90.002 50.391,89.241 50.391 C 88.480 50.391,86.503 50.687,84.847 51.050 C 83.191 51.412,81.367 51.720,80.794 51.733 C 80.221 51.747,79.829 51.835,79.923 51.929 C 80.224 52.230,76.457 53.496,76.013 53.243 C 75.778 53.109,75.718 53.146,75.880 53.324 C 76.042 53.502,74.812 54.379,73.146 55.271 C 68.689 57.659,68.195 57.959,67.852 58.496 C 67.680 58.765,67.362 58.984,67.145 58.984 C 66.928 58.984,66.883 58.765,67.044 58.496 C 67.246 58.160,67.132 58.174,66.681 58.540 C 66.320 58.833,66.112 59.215,66.219 59.388 C 66.480 59.811,64.456 61.376,64.007 61.098 C 63.812 60.978,63.701 61.112,63.760 61.397 C 63.819 61.681,63.634 61.866,63.350 61.807 C 63.065 61.748,62.928 61.854,63.045 62.043 C 63.299 62.454,61.581 64.157,61.201 63.871 C 61.056 63.761,61.019 63.783,61.119 63.919 C 61.444 64.360,60.520 65.655,60.076 65.380 C 59.833 65.230,59.754 65.291,59.896 65.520 C 60.035 65.744,59.903 66.130,59.604 66.378 C 59.190 66.722,59.022 66.714,58.899 66.345 C 58.794 66.029,58.645 66.099,58.475 66.544 C 58.301 66.996,58.360 67.137,58.649 66.958 C 58.913 66.795,59.011 66.902,58.895 67.231 C 58.791 67.529,58.430 67.751,58.094 67.724 C 57.700 67.693,57.564 67.885,57.712 68.269 C 57.841 68.606,57.626 69.092,57.215 69.392 C 56.817 69.684,56.623 69.922,56.783 69.922 C 56.944 69.922,56.774 70.433,56.405 71.057 C 56.036 71.682,55.516 72.109,55.250 72.007 C 54.984 71.905,54.652 72.007,54.511 72.235 C 54.356 72.486,54.494 72.556,54.863 72.415 C 55.670 72.105,55.668 72.114,54.140 75.433 C 52.879 78.171,50.951 83.950,50.671 85.830 C 50.599 86.308,50.446 86.794,50.330 86.910 C 50.214 87.026,50.197 87.909,50.293 88.873 C 50.390 89.837,50.319 90.625,50.137 90.625 C 49.954 90.625,49.848 105.171,49.902 122.949 C 49.955 140.728,50.050 190.518,50.113 233.594 C 50.219 307.036,50.269 312.093,50.919 314.789 C 51.301 316.371,51.516 317.918,51.397 318.228 C 51.278 318.537,51.328 318.699,51.509 318.588 C 51.890 318.353,52.807 321.146,52.607 321.932 C 52.532 322.223,52.547 322.325,52.639 322.159 C 52.774 321.914,56.246 328.355,56.249 328.856 C 56.250 328.936,55.942 328.769,55.566 328.485 C 54.976 328.038,54.952 328.045,55.391 328.534 C 55.670 328.846,56.057 329.102,56.250 329.102 C 57.097 329.102,60.125 334.137,59.647 334.751 C 59.250 335.261,59.271 335.280,59.790 334.876 C 60.304 334.476,60.770 334.778,62.720 336.776 C 66.757 340.911,76.551 347.266,78.888 347.266 C 79.138 347.266,79.262 347.397,79.162 347.559 C 79.062 347.720,79.360 347.875,79.822 347.904 C 81.007 347.977,87.264 349.363,87.500 349.605 C 87.607 349.715,89.189 349.866,91.016 349.941 C 92.950 350.020,94.456 350.265,94.623 350.527 C 94.833 350.856,94.912 350.847,94.916 350.494 C 94.921 350.112,117.299 349.995,202.051 349.937 C 324.708 349.851,312.876 349.902,312.603 349.459 C 312.485 349.269,312.941 349.195,313.616 349.294 C 314.291 349.393,314.844 349.308,314.844 349.106 C 314.844 348.903,315.283 348.821,315.820 348.924 C 316.357 349.026,316.797 348.939,316.797 348.728 C 316.797 348.518,317.148 348.438,317.578 348.551 C 318.008 348.663,318.359 348.577,318.359 348.359 C 318.359 348.141,318.612 348.060,318.920 348.178 C 319.228 348.297,319.536 348.268,319.604 348.115 C 319.754 347.773,325.470 345.498,325.879 345.618 C 326.040 345.665,326.172 345.517,326.172 345.289 C 326.172 345.062,326.348 344.984,326.563 345.117 C 326.777 345.250,326.953 345.154,326.953 344.903 C 326.953 344.652,327.225 344.552,327.559 344.680 C 327.893 344.808,328.064 344.748,327.939 344.546 C 327.665 344.103,329.166 343.232,329.669 343.543 C 329.864 343.664,330.151 343.557,330.307 343.305 C 330.495 343.001,330.406 342.945,330.041 343.138 C 329.739 343.297,329.932 343.063,330.469 342.619 C 331.006 342.174,331.663 341.889,331.929 341.985 C 332.195 342.081,332.371 342.013,332.320 341.834 C 332.208 341.445,336.976 337.109,337.515 337.109 C 337.721 337.109,337.894 336.890,337.899 336.621 C 337.904 336.353,338.856 335.122,340.014 333.887 C 341.173 332.651,342.036 331.641,341.932 331.641 C 341.675 331.641,343.417 329.172,343.926 328.815 C 344.152 328.657,344.190 328.525,344.011 328.522 C 343.724 328.516,345.123 325.897,345.683 325.391 C 345.801 325.283,345.954 324.932,346.023 324.609 C 346.091 324.287,346.399 323.513,346.706 322.889 C 347.014 322.265,347.266 321.508,347.266 321.206 C 347.266 320.904,347.456 320.774,347.688 320.918 C 347.940 321.074,348.080 320.886,348.034 320.453 C 347.991 320.053,347.992 319.639,348.034 319.531 C 348.077 319.424,348.169 318.984,348.238 318.555 C 348.308 318.125,348.683 316.455,349.071 314.844 C 349.827 311.709,350.426 87.648,349.681 87.130 C 349.243 86.825,348.412 82.004,348.708 81.485 C 348.843 81.248,348.813 81.182,348.640 81.338 C 348.468 81.493,347.943 80.526,347.474 79.189 C 346.418 76.177,344.128 71.589,342.503 69.226 C 341.540 67.827,341.433 67.505,342.003 67.724 C 342.710 67.995,342.710 67.981,342.007 67.204 C 341.197 66.308,340.826 66.157,341.251 66.895 C 341.406 67.163,341.064 66.957,340.493 66.436 C 339.921 65.915,339.453 65.354,339.453 65.188 C 339.453 64.769,335.651 61.217,332.932 59.096 C 331.684 58.123,330.701 57.193,330.746 57.030 C 330.792 56.866,330.528 56.756,330.160 56.784 C 329.793 56.813,329.540 56.603,329.600 56.319 C 329.659 56.034,329.538 55.905,329.333 56.033 C 329.127 56.160,327.848 55.654,326.491 54.909 C 323.164 53.082,317.448 51.264,313.222 50.689 C 310.703 50.346,309.802 50.079,309.940 49.717 C 310.083 49.345,309.567 49.234,307.898 49.280 L 305.664 49.341 307.617 49.609 C 308.691 49.757,287.413 49.905,260.332 49.939 C 221.414 49.987,210.983 49.898,210.568 49.512 C 210.145 49.120,210.098 49.123,210.329 49.531 C 210.565 49.947,204.626 50.027,177.770 49.971 C 153.739 49.921,144.920 49.785,144.916 49.463 C 144.912 49.205,144.771 49.242,144.574 49.553 C 144.340 49.923,144.157 49.952,143.971 49.651 C 143.824 49.413,143.495 49.221,143.239 49.225 C 142.959 49.228,143.007 49.382,143.359 49.609 C 143.777 49.879,143.383 49.975,141.992 49.943 C 140.137 49.899,140.108 49.883,141.406 49.609 L 142.773 49.322 141.309 49.270 C 140.503 49.242,139.844 49.395,139.844 49.609 C 139.844 49.824,139.360 49.988,138.770 49.973 C 137.818 49.948,137.784 49.907,138.477 49.609 C 139.169 49.312,139.135 49.271,138.184 49.246 C 137.593 49.231,137.109 49.395,137.109 49.609 C 137.109 49.824,136.362 49.977,135.449 49.949 L 133.789 49.897 135.156 49.609 C 136.455 49.336,136.426 49.319,134.570 49.276 C 133.241 49.245,132.799 49.346,133.187 49.591 C 133.546 49.818,131.131 49.944,126.648 49.931 C 122.739 49.920,119.627 49.771,119.733 49.599 C 119.943 49.258,119.179 49.300,118.555 49.663 C 117.806 50.099,95.313 50.067,95.313 49.630 C 95.313 49.404,94.775 49.219,94.118 49.219 C 93.373 49.219,93.019 49.375,93.179 49.634 M149.907 49.495 C 150.393 49.588,151.096 49.585,151.469 49.487 C 151.843 49.389,151.445 49.313,150.586 49.317 C 149.727 49.322,149.421 49.402,149.907 49.495 M165.532 49.495 C 166.018 49.588,166.721 49.585,167.094 49.487 C 167.468 49.389,167.070 49.313,166.211 49.317 C 165.352 49.322,165.046 49.402,165.532 49.495 M172.956 49.502 C 173.658 49.589,174.713 49.587,175.300 49.498 C 175.887 49.409,175.313 49.338,174.023 49.340 C 172.734 49.342,172.254 49.415,172.956 49.502 M206.157 49.495 C 206.643 49.588,207.346 49.585,207.719 49.487 C 208.093 49.389,207.695 49.313,206.836 49.317 C 205.977 49.322,205.671 49.402,206.157 49.495 M301.666 49.499 C 302.259 49.589,303.138 49.586,303.619 49.494 C 304.099 49.401,303.613 49.328,302.539 49.330 C 301.465 49.333,301.072 49.409,301.666 49.499 M166.211 148.088 C 187.620 150.701,199.818 163.333,199.743 182.813 C 199.688 197.195,193.276 207.629,180.566 214.018 C 179.224 214.693,178.125 215.322,178.125 215.414 C 178.125 215.607,182.410 222.290,193.539 239.453 C 197.788 246.006,201.351 251.589,201.457 251.860 C 201.610 252.253,198.687 252.333,187.085 252.251 L 172.521 252.148 163.589 238.086 C 158.676 230.352,153.966 222.925,153.123 221.582 L 151.591 219.141 140.444 219.141 L 129.297 219.141 129.297 235.742 L 129.297 252.344 115.820 252.344 L 102.344 252.344 102.344 200.000 L 102.344 147.656 132.520 147.657 C 152.041 147.658,163.937 147.810,166.211 148.088 M297.565 157.910 C 297.623 163.442,297.623 168.009,297.565 168.057 C 297.508 168.106,285.068 168.238,269.922 168.350 L 242.383 168.555 242.279 179.738 L 242.176 190.921 243.060 191.158 C 243.547 191.289,255.327 191.398,269.238 191.401 L 294.531 191.406 294.531 201.560 L 294.531 211.713 268.457 211.814 L 242.383 211.914 242.188 232.031 L 241.992 252.148 228.906 252.148 L 215.820 252.148 215.720 200.391 C 215.665 171.924,215.703 148.412,215.806 148.143 C 215.954 147.753,224.345 147.673,256.727 147.752 L 297.461 147.852 297.565 157.910 M129.208 183.379 L 129.315 198.438 142.099 198.431 C 159.681 198.421,163.532 197.921,167.572 195.121 C 174.644 190.221,174.806 176.603,167.854 171.490 C 163.912 168.591,163.755 168.570,145.508 168.439 L 129.102 168.321 129.208 183.379 M57.634 332.004 C 57.510 332.204,57.591 332.480,57.813 332.617 C 58.034 332.754,58.097 333.074,57.952 333.328 C 57.806 333.581,57.831 333.659,58.007 333.499 C 58.183 333.340,58.606 333.423,58.948 333.683 C 59.290 333.943,59.173 333.709,58.688 333.162 C 58.202 332.616,57.924 332.050,58.069 331.905 C 58.215 331.759,58.227 331.641,58.096 331.641 C 57.965 331.641,57.757 331.804,57.634 332.004 " stroke="none" fill="#2b2b34" fill-rule="evenodd"></path><path id="path1" d="M289.648 49.646 C 288.025 49.838,288.273 49.888,291.113 49.939 C 292.993 49.972,294.531 49.931,294.531 49.846 C 294.531 49.540,291.562 49.419,289.648 49.646 M296.484 49.638 C 295.421 49.839,295.718 49.909,297.819 49.949 C 299.305 49.977,300.412 49.891,300.279 49.759 C 299.923 49.402,298.044 49.342,296.484 49.638 M303.711 49.609 C 303.173 49.840,303.721 49.939,305.469 49.926 C 307.425 49.912,307.739 49.839,306.836 49.609 C 305.267 49.210,304.640 49.210,303.711 49.609 M195.597 49.891 C 196.290 49.978,197.521 49.979,198.331 49.894 C 199.142 49.810,198.574 49.739,197.070 49.738 C 195.566 49.736,194.903 49.805,195.597 49.891 M200.879 49.889 C 201.470 49.979,202.437 49.979,203.027 49.889 C 203.618 49.800,203.135 49.726,201.953 49.726 C 200.771 49.726,200.288 49.800,200.879 49.889 M216.706 49.892 C 217.408 49.979,218.463 49.978,219.050 49.888 C 219.637 49.799,219.062 49.728,217.773 49.730 C 216.484 49.733,216.004 49.806,216.706 49.892 M280.762 49.892 C 281.460 49.979,282.603 49.979,283.301 49.892 C 283.999 49.805,283.428 49.734,282.031 49.734 C 280.635 49.734,280.063 49.805,280.762 49.892 M325.731 53.786 C 325.437 54.149,325.400 54.324,325.650 54.174 C 325.900 54.024,326.176 54.114,326.262 54.373 C 326.384 54.739,326.484 54.740,326.709 54.375 C 326.869 54.117,326.803 53.906,326.563 53.906 C 326.322 53.906,326.234 53.730,326.367 53.516 C 326.760 52.880,326.312 53.070,325.731 53.786 M328.158 55.601 C 328.997 56.282,332.031 58.197,332.031 58.045 C 332.031 57.789,328.655 55.469,328.282 55.469 C 328.124 55.469,328.068 55.528,328.158 55.601 M345.382 73.995 C 346.190 75.659,346.875 76.299,346.875 75.391 C 346.875 75.176,346.721 75.000,346.532 75.000 C 346.343 75.000,345.969 74.469,345.700 73.820 C 345.431 73.171,345.054 72.543,344.862 72.424 C 344.671 72.306,344.904 73.013,345.382 73.995 M49.750 98.438 C 49.750 100.479,49.816 101.313,49.896 100.293 C 49.977 99.272,49.977 97.603,49.896 96.582 C 49.816 95.562,49.750 96.396,49.750 98.438 M49.738 105.664 C 49.739 107.168,49.810 107.735,49.894 106.925 C 49.979 106.114,49.978 104.884,49.891 104.191 C 49.805 103.497,49.736 104.160,49.738 105.664 M49.802 206.250 C 49.802 259.424,49.847 281.177,49.902 254.590 C 49.958 228.003,49.958 184.497,49.902 157.910 C 49.847 131.323,49.802 153.076,49.802 206.250 M102.734 199.892 L 102.734 251.933 115.816 252.041 L 128.898 252.148 129.000 235.547 L 129.102 218.945 140.357 218.894 L 151.612 218.844 152.622 220.457 C 153.178 221.344,155.916 225.674,158.707 230.078 C 161.498 234.482,165.723 241.162,168.096 244.922 C 170.469 248.682,172.462 251.827,172.525 251.912 C 172.680 252.121,200.872 251.993,201.083 251.782 C 201.175 251.689,198.710 247.691,195.605 242.897 C 192.499 238.102,187.795 230.840,185.150 226.758 C 182.505 222.676,179.755 218.421,179.038 217.304 L 177.734 215.271 181.152 213.505 C 206.080 200.622,206.169 164.431,181.303 152.465 C 172.356 148.160,170.612 147.997,132.715 147.916 L 102.734 147.852 102.734 199.892 M160.339 168.378 C 170.994 169.917,176.453 180.782,171.501 190.592 C 168.053 197.423,164.506 198.421,143.652 198.431 L 128.906 198.438 128.906 183.203 L 128.906 167.969 143.262 167.976 C 151.157 167.981,158.842 168.161,160.339 168.378 M49.730 306.055 C 49.733 307.344,49.806 307.824,49.892 307.122 C 49.979 306.420,49.978 305.365,49.888 304.778 C 49.799 304.191,49.728 304.766,49.730 306.055 M50.037 311.992 C 49.993 313.015,50.794 316.915,51.004 316.704 C 51.085 316.624,50.908 315.337,50.612 313.845 C 50.316 312.353,50.057 311.520,50.037 311.992 M54.592 326.822 C 54.862 326.931,54.995 327.162,54.887 327.336 C 54.780 327.510,54.959 327.755,55.285 327.880 C 55.768 328.065,55.801 327.964,55.464 327.335 C 55.237 326.910,54.837 326.576,54.576 326.593 C 54.221 326.616,54.225 326.674,54.592 326.822 M63.281 338.086 C 64.010 338.838,64.694 339.453,64.802 339.453 C 64.909 339.453,64.401 338.838,63.672 338.086 C 62.943 337.334,62.259 336.719,62.151 336.719 C 62.044 336.719,62.552 337.334,63.281 338.086 M65.234 339.610 C 65.234 339.972,66.677 341.245,67.773 341.851 C 68.203 342.089,68.379 342.128,68.164 341.939 C 67.949 341.750,67.202 341.081,66.504 340.451 C 65.806 339.822,65.234 339.444,65.234 339.610 M68.895 342.497 C 69.052 342.751,70.007 343.437,71.016 344.020 C 72.026 344.603,72.939 345.176,73.047 345.294 C 73.498 345.788,75.039 346.484,75.678 346.482 C 76.057 346.481,75.148 345.855,73.658 345.090 C 72.168 344.326,70.423 343.325,69.779 342.867 C 69.135 342.409,68.738 342.242,68.895 342.497 " stroke="none" fill="#ebebed" fill-rule="evenodd"></path><path id="path2" d="M216.762 148.530 C 216.396 149.599,216.544 251.183,216.912 251.224 C 218.447 251.395,240.007 251.447,240.640 251.281 C 241.388 251.085,241.406 250.627,241.412 231.693 C 241.416 220.161,241.568 212.067,241.788 211.719 C 242.109 211.211,245.583 211.107,267.857 210.938 L 293.555 210.742 293.555 201.591 L 293.555 192.439 292.397 192.130 C 291.761 191.959,280.261 191.837,266.842 191.857 C 243.700 191.892,242.416 191.857,241.925 191.185 C 240.992 189.909,241.190 168.966,242.144 168.013 C 242.852 167.304,243.915 167.276,269.487 167.297 C 284.121 167.309,296.209 167.202,296.351 167.060 C 296.667 166.745,296.630 149.379,296.312 148.866 C 296.117 148.549,216.869 148.215,216.762 148.530 " stroke="none" fill="#0c3b94" fill-rule="evenodd"></path><path id="path3" d="M215.806 148.143 C 215.703 148.412,215.665 171.924,215.720 200.391 L 215.820 252.148 228.906 252.148 L 241.992 252.148 242.188 232.031 L 242.383 211.914 268.457 211.814 L 294.531 211.713 294.531 201.560 L 294.531 191.406 269.238 191.401 C 255.327 191.398,243.547 191.289,243.060 191.158 L 242.176 190.921 242.279 179.738 L 242.383 168.555 269.922 168.350 C 285.068 168.238,297.508 168.106,297.565 168.057 C 297.623 168.009,297.623 163.442,297.565 157.910 L 297.461 147.852 256.727 147.752 C 224.345 147.673,215.954 147.753,215.806 148.143 M296.312 148.866 C 296.630 149.379,296.667 166.745,296.351 167.060 C 296.209 167.202,284.121 167.309,269.487 167.297 C 243.915 167.276,242.852 167.304,242.144 168.013 C 241.190 168.966,240.992 189.909,241.925 191.185 C 242.416 191.857,243.700 191.892,266.842 191.857 C 280.261 191.837,291.761 191.959,292.397 192.130 L 293.555 192.439 293.555 201.591 L 293.555 210.742 267.857 210.938 C 245.583 211.107,242.109 211.211,241.788 211.719 C 241.568 212.067,241.416 220.161,241.412 231.693 C 241.406 250.627,241.388 251.085,240.640 251.281 C 240.007 251.447,218.447 251.395,216.912 251.224 C 216.544 251.183,216.396 149.599,216.762 148.530 C 216.869 148.215,296.117 148.549,296.312 148.866 " stroke="none" fill="#11357f" fill-rule="evenodd"></path><path id="path4" d="M95.996 49.885 C 96.479 49.978,97.271 49.978,97.754 49.885 C 98.237 49.792,97.842 49.716,96.875 49.716 C 95.908 49.716,95.513 49.792,95.996 49.885 M106.553 49.896 C 107.472 49.978,108.878 49.977,109.678 49.893 C 110.478 49.809,109.727 49.742,108.008 49.743 C 106.289 49.745,105.635 49.813,106.553 49.896 M123.744 49.898 C 124.879 49.977,126.637 49.976,127.650 49.896 C 128.663 49.816,127.734 49.751,125.586 49.752 C 123.438 49.753,122.608 49.819,123.744 49.898 M131.548 49.886 C 132.033 49.979,132.737 49.976,133.110 49.878 C 133.483 49.780,133.086 49.704,132.227 49.708 C 131.367 49.712,131.062 49.792,131.548 49.886 M141.119 49.890 C 141.712 49.979,142.591 49.977,143.072 49.884 C 143.552 49.792,143.066 49.718,141.992 49.721 C 140.918 49.724,140.525 49.800,141.119 49.890 M150.688 49.886 C 151.174 49.979,151.877 49.976,152.251 49.878 C 152.624 49.780,152.227 49.704,151.367 49.708 C 150.508 49.712,150.202 49.792,150.688 49.886 M164.941 49.889 C 165.532 49.979,166.499 49.979,167.090 49.889 C 167.681 49.800,167.197 49.726,166.016 49.726 C 164.834 49.726,164.351 49.800,164.941 49.889 M177.641 49.886 C 178.127 49.979,178.830 49.976,179.204 49.878 C 179.577 49.780,179.180 49.704,178.320 49.708 C 177.461 49.712,177.155 49.792,177.641 49.886 M213.579 49.886 C 214.065 49.979,214.768 49.976,215.141 49.878 C 215.515 49.780,215.117 49.704,214.258 49.708 C 213.398 49.712,213.093 49.792,213.579 49.886 M227.837 49.890 C 228.431 49.979,229.310 49.977,229.791 49.884 C 230.271 49.792,229.785 49.718,228.711 49.721 C 227.637 49.724,227.244 49.800,227.837 49.890 M242.898 49.902 C 248.338 49.963,257.127 49.963,262.430 49.902 C 267.732 49.841,263.281 49.790,252.539 49.791 C 241.797 49.791,237.459 49.841,242.898 49.902 M276.270 49.879 C 276.646 49.977,277.261 49.977,277.637 49.879 C 278.013 49.780,277.705 49.700,276.953 49.700 C 276.201 49.700,275.894 49.780,276.270 49.879 M285.063 49.886 C 285.549 49.979,286.252 49.976,286.626 49.878 C 286.999 49.780,286.602 49.704,285.742 49.708 C 284.883 49.712,284.577 49.792,285.063 49.886 M310.547 50.000 C 309.629 50.294,309.648 50.315,310.863 50.352 C 311.633 50.375,312.058 50.233,311.914 50.000 C 311.781 49.785,311.639 49.627,311.598 49.648 C 311.557 49.670,311.084 49.828,310.547 50.000 M85.938 50.391 L 84.961 50.703 86.035 50.742 C 86.626 50.764,87.109 50.605,87.109 50.391 C 87.109 50.176,87.065 50.018,87.012 50.039 C 86.958 50.060,86.475 50.219,85.938 50.391 M88.770 50.269 C 89.146 50.368,89.761 50.368,90.137 50.269 C 90.513 50.171,90.205 50.091,89.453 50.091 C 88.701 50.091,88.394 50.171,88.770 50.269 M315.090 50.864 C 315.365 51.309,316.797 51.243,316.797 50.786 C 316.797 50.573,316.370 50.435,315.848 50.478 C 315.327 50.521,314.986 50.695,315.090 50.864 M65.381 59.885 C 64.925 60.113,64.338 60.642,64.076 61.061 C 63.640 61.760,63.700 61.752,64.796 60.971 C 65.454 60.503,66.096 59.952,66.222 59.747 C 66.482 59.327,66.506 59.323,65.381 59.885 M333.789 59.653 C 335.810 61.586,338.281 63.736,338.281 63.560 C 338.281 63.198,335.019 60.112,334.180 59.681 C 333.750 59.460,333.574 59.448,333.789 59.653 M339.453 65.101 C 339.453 65.314,339.937 65.915,340.527 66.436 L 341.602 67.383 340.625 66.211 C 340.088 65.566,339.604 64.966,339.551 64.876 C 339.497 64.787,339.453 64.888,339.453 65.101 M346.875 77.637 C 346.875 77.823,347.130 78.317,347.442 78.734 C 347.988 79.465,348.000 79.461,347.785 78.607 C 347.563 77.725,346.875 76.992,346.875 77.637 M51.788 80.120 C 51.283 81.619,50.850 83.655,51.086 83.419 C 51.459 83.046,52.347 79.951,52.141 79.745 C 52.048 79.652,51.889 79.821,51.788 80.120 M348.834 83.822 C 348.837 84.233,349.019 84.834,349.237 85.156 C 349.526 85.584,349.562 85.426,349.371 84.570 C 349.050 83.134,348.826 82.822,348.834 83.822 M349.700 89.063 C 349.700 89.814,349.780 90.122,349.879 89.746 C 349.977 89.370,349.977 88.755,349.879 88.379 C 349.780 88.003,349.700 88.311,349.700 89.063 M50.091 89.453 C 50.091 90.205,50.171 90.513,50.269 90.137 C 50.368 89.761,50.368 89.146,50.269 88.770 C 50.171 88.394,50.091 88.701,50.091 89.453 M49.716 93.359 C 49.716 94.326,49.792 94.722,49.885 94.238 C 49.978 93.755,49.978 92.964,49.885 92.480 C 49.792 91.997,49.716 92.393,49.716 93.359 M102.440 199.902 L 102.344 252.344 115.527 252.252 L 128.711 252.159 115.724 252.051 L 102.737 251.943 102.637 199.702 L 102.536 147.461 102.440 199.902 M106.157 147.933 C 106.643 148.026,107.346 148.022,107.719 147.925 C 108.093 147.827,107.695 147.750,106.836 147.755 C 105.977 147.759,105.671 147.839,106.157 147.933 M112.016 147.933 C 112.502 148.026,113.205 148.022,113.579 147.925 C 113.952 147.827,113.555 147.750,112.695 147.755 C 111.836 147.759,111.530 147.839,112.016 147.933 M122.962 147.945 C 124.097 148.024,125.855 148.023,126.869 147.943 C 127.882 147.863,126.953 147.798,124.805 147.799 C 122.656 147.800,121.827 147.866,122.962 147.945 M131.738 147.936 C 132.329 148.026,133.296 148.026,133.887 147.936 C 134.478 147.847,133.994 147.773,132.813 147.773 C 131.631 147.773,131.147 147.847,131.738 147.936 M140.728 147.937 C 141.322 148.026,142.201 148.024,142.681 147.931 C 143.162 147.839,142.676 147.765,141.602 147.768 C 140.527 147.771,140.134 147.847,140.728 147.937 M152.246 147.948 C 154.448 148.017,158.052 148.017,160.254 147.948 C 162.456 147.878,160.654 147.821,156.250 147.821 C 151.846 147.821,150.044 147.878,152.246 147.948 M136.230 168.261 C 140.366 168.324,147.134 168.324,151.270 168.261 C 155.405 168.198,152.021 168.146,143.750 168.146 C 135.479 168.146,132.095 168.198,136.230 168.261 M129.084 183.594 C 129.084 191.865,129.135 195.249,129.199 191.113 C 129.262 186.978,129.262 180.210,129.199 176.074 C 129.135 171.938,129.084 175.322,129.084 183.594 M199.748 182.617 C 199.747 184.551,199.813 185.391,199.895 184.484 C 199.977 183.578,199.978 181.996,199.897 180.969 C 199.816 179.942,199.749 180.684,199.748 182.617 M156.938 198.323 C 157.424 198.417,158.127 198.413,158.501 198.315 C 158.874 198.217,158.477 198.141,157.617 198.145 C 156.758 198.150,156.452 198.230,156.938 198.323 M129.085 219.238 C 128.982 219.507,128.944 227.110,129.000 236.133 L 129.102 252.539 129.297 235.644 C 129.404 226.352,129.443 218.750,129.382 218.750 C 129.322 218.750,129.188 218.970,129.085 219.238 M131.543 219.036 C 132.456 219.118,133.950 219.118,134.863 219.036 C 135.776 218.954,135.029 218.886,133.203 218.886 C 131.377 218.886,130.630 218.954,131.543 219.036 M147.831 219.042 C 149.764 219.115,151.598 219.384,151.933 219.645 C 152.466 220.060,152.474 220.034,152.003 219.434 C 151.553 218.860,150.894 218.763,147.901 218.830 L 144.336 218.911 147.831 219.042 M198.242 251.953 L 195.117 252.200 198.340 252.272 C 200.276 252.315,201.563 252.188,201.563 251.953 C 201.563 251.738,201.519 251.595,201.465 251.634 C 201.411 251.674,199.961 251.817,198.242 251.953 M179.785 252.245 C 182.310 252.313,186.440 252.313,188.965 252.245 C 191.489 252.177,189.424 252.121,184.375 252.121 C 179.326 252.121,177.261 252.177,179.785 252.245 M49.883 309.659 C 50.186 311.621,50.391 311.778,50.391 310.049 C 50.391 309.274,50.225 308.538,50.023 308.413 C 49.804 308.277,49.747 308.781,49.883 309.659 M52.359 320.971 C 52.336 321.666,53.119 323.574,53.337 323.355 C 53.442 323.251,53.268 322.567,52.951 321.836 C 52.634 321.106,52.367 320.716,52.359 320.971 M344.388 327.441 L 343.685 328.711 344.490 327.734 C 345.204 326.868,345.521 326.172,345.201 326.172 C 345.140 326.172,344.774 326.743,344.388 327.441 M339.063 334.961 C 338.334 335.713,337.904 336.328,338.107 336.328 C 338.310 336.328,338.967 335.713,339.567 334.961 C 340.960 333.215,340.754 333.215,339.063 334.961 M61.198 335.645 C 61.576 336.128,62.682 337.218,63.657 338.068 C 65.064 339.294,64.949 339.113,63.098 337.189 C 60.676 334.671,60.020 334.138,61.198 335.645 M336.023 338.184 C 335.088 339.097,335.073 339.142,335.919 338.482 C 337.586 337.184,337.665 337.109,337.389 337.109 C 337.242 337.109,336.627 337.593,336.023 338.184 M310.063 349.886 C 310.549 349.979,311.252 349.976,311.626 349.878 C 311.999 349.780,311.602 349.704,310.742 349.708 C 309.883 349.712,309.577 349.792,310.063 349.886 " stroke="none" fill="#7a7980" fill-rule="evenodd"></path></g></svg>