<?xml version="1.0" standalone="no"?>
<!DOCTYPE svg PUBLIC "-//W3C//DTD SVG 20010904//EN"
 "http://www.w3.org/TR/2001/REC-SVG-20010904/DTD/svg10.dtd">
<svg version="1.0" xmlns="http://www.w3.org/2000/svg"
 width="1024.000000pt" height="1024.000000pt" viewBox="0 0 1024.000000 1024.000000"
 preserveAspectRatio="xMidYMid meet">

<g transform="translate(0.000000,1024.000000) scale(0.100000,-0.100000)"
fill="#000000" stroke="none">
<path d="M2294 8949 c-255 -18 -487 -130 -684 -328 -210 -212 -298 -413 -321
-730 -7 -97 -9 -1065 -7 -2886 l4 -2740 21 -90 c29 -123 55 -193 107 -291 85
-159 218 -310 357 -404 142 -97 345 -171 514 -187 44 -5 1353 -6 2910 -3
l2830 5 80 23 c286 83 514 246 663 472 70 105 111 198 150 337 l27 98 0 2905
0 2905 -28 99 c-100 360 -376 652 -723 765 -175 57 -17 54 -3024 55 -1532 1
-2826 -2 -2876 -5z m2064 -2517 c425 -96 658 -307 738 -667 21 -96 23 -268 5
-375 -48 -273 -219 -499 -474 -625 l-74 -37 303 -469 c167 -258 304 -472 304
-474 0 -3 -166 -5 -369 -5 l-369 0 -242 381 c-133 210 -254 401 -268 425 l-27
44 -292 0 -293 0 0 -425 0 -425 -337 2 -338 3 -3 1325 c-1 729 0 1331 3 1338
4 11 154 13 822 9 787 -3 821 -4 911 -25z"/>
<path d="M3308 5934 c-5 -4 -8 -180 -8 -391 l0 -383 368 0 c391 1 476 8 563
49 74 35 125 85 161 158 28 57 33 79 36 158 7 156 -41 264 -148 337 -96 65
-127 69 -570 75 -217 3 -398 2 -402 -3z"/>
</g>
</svg>
